<svg width="153" height="94" viewBox="0 0 153 94" fill="none" xmlns="http://www.w3.org/2000/svg">
<path d="M0.272728 94V0.909088H32.8182C39.303 0.909088 44.6515 2.0303 48.8636 4.27273C53.0758 6.48485 56.2121 9.46969 58.2727 13.2273C60.3333 16.9545 61.3636 21.0909 61.3636 25.6364C61.3636 29.6364 60.6515 32.9394 59.2273 35.5455C57.8333 38.1515 55.9849 40.2121 53.6818 41.7273C51.4091 43.2424 48.9394 44.3636 46.2727 45.0909V46C49.1212 46.1818 51.9849 47.1818 54.8636 49C57.7424 50.8182 60.1515 53.4242 62.0909 56.8182C64.0303 60.2121 65 64.3636 65 69.2727C65 73.9394 63.9394 78.1364 61.8182 81.8636C59.697 85.5909 56.3485 88.5455 51.7727 90.7273C47.197 92.9091 41.2424 94 33.9091 94H0.272728ZM11.5455 84H33.9091C41.2727 84 46.5 82.5758 49.5909 79.7273C52.7121 76.8485 54.2727 73.3636 54.2727 69.2727C54.2727 66.1212 53.4697 63.2121 51.8636 60.5455C50.2576 57.8485 47.9697 55.697 45 54.0909C42.0303 52.4545 38.5152 51.6364 34.4545 51.6364H11.5455V84ZM11.5455 41.8182H32.4545C35.8485 41.8182 38.9091 41.1515 41.6364 39.8182C44.3939 38.4848 46.5758 36.6061 48.1818 34.1818C49.8182 31.7576 50.6364 28.9091 50.6364 25.6364C50.6364 21.5455 49.2121 18.0758 46.3636 15.2273C43.5152 12.3485 39 10.9091 32.8182 10.9091H11.5455V41.8182ZM83.5227 94V0.909088H94.7955V47.0909H95.8864L137.705 0.909088H152.432L113.341 42.9091L152.432 94H138.795L106.432 50.7273L94.7955 63.8182V94H83.5227Z" fill="#8390FA"/>
</svg>
